<svg width="273" height="60" viewBox="0 0 273 60" fill="none" xmlns="http://www.w3.org/2000/svg">
<path d="M110.177 37.56C110.63 37.56 110.857 38.1733 110.857 39.4C110.857 40.0667 110.577 40.88 110.017 41.84C109.457 42.7733 108.723 43.64 107.817 44.44C106.937 45.2133 105.95 45.8533 104.857 46.36C103.763 46.8667 102.603 47.12 101.377 47.12C100.177 47.12 99.2302 46.7333 98.5368 45.96C97.8702 45.16 97.5368 44.28 97.5368 43.32C97.5368 42.3333 97.6968 41.2267 98.0168 40C98.3368 38.7733 98.6835 37.4933 99.0568 36.16C100.07 32.6133 100.59 30.12 100.617 28.68C100.617 28.0667 100.537 27.6 100.377 27.28C100.217 26.9333 99.9102 26.76 99.4568 26.76C98.6568 26.76 97.8035 27.24 96.8968 28.2C95.9902 29.16 95.1368 30.3867 94.3368 31.88C92.4968 35.2933 91.5235 38.6267 91.4168 41.88C91.4702 42.2533 91.5235 42.6267 91.5768 43C91.6302 43.3733 91.6568 43.7733 91.6568 44.2C91.6568 45.0533 91.2302 45.84 90.3768 46.56C89.5502 47.2533 88.6168 47.6 87.5768 47.6C86.9635 47.6 86.5102 47.3067 86.2168 46.72C85.9235 46.1067 85.7768 45.36 85.7768 44.48C85.7768 43.6 85.9768 42.4 86.3768 40.88C86.7768 39.36 87.2168 37.7467 87.6968 36.04C88.9768 31.5333 89.6302 28.1733 89.6568 25.96C89.6568 24.84 89.5102 23.96 89.2168 23.32C88.9502 22.68 88.4168 22.36 87.6168 22.36C86.1768 22.36 84.7502 23.3867 83.3368 25.44C81.9235 27.4933 80.6568 30.68 79.5368 35C79.2435 36.12 79.0168 37.0933 78.8568 37.92L78.8168 38.68C79.3235 41.1333 79.5768 42.7333 79.5768 43.48C79.5768 45.0267 79.0302 46.0667 77.9368 46.6C77.4302 46.84 76.9368 47.0667 76.4568 47.28C76.0035 47.4933 75.5102 47.6 74.9768 47.6C73.6435 47.6 72.9768 46.3333 72.9768 43.8C72.9768 41.24 73.6835 36.2533 75.0968 28.84C75.6035 26.1733 75.8568 24.68 75.8568 24.36C75.8568 22.2 75.3102 21.12 74.2168 21.12C73.8435 21.12 73.4968 21.2267 73.1768 21.44C72.8835 21.6533 72.5768 21.88 72.2568 22.12C71.9635 22.36 71.6568 22.5867 71.3368 22.8C71.0168 23.0133 70.6435 23.12 70.2168 23.12C69.8168 23.12 69.6168 22.76 69.6168 22.04C69.6168 20.5733 70.2968 19.3733 71.6568 18.44C72.9635 17.48 74.5502 17 76.4168 17C78.8168 17 80.2302 18.12 80.6568 20.36C80.7635 21.0267 80.8435 21.7333 80.8968 22.48C82.8702 18.7733 85.3635 16.92 88.3768 16.92C91.6568 16.92 93.5368 18.4933 94.0168 21.64C94.1768 22.5467 94.2435 23.52 94.2168 24.56V24.88C95.9502 22.48 98.0035 21.28 100.377 21.28C103.737 21.28 105.417 23.3067 105.417 27.36C105.417 29.12 105.137 31.1867 104.577 33.56C104.043 35.9067 103.643 37.6 103.377 38.64C103.137 39.6533 103.017 40.44 103.017 41C103.017 42.0133 103.363 42.52 104.057 42.52C104.777 42.52 106.47 41.1333 109.137 38.36C109.617 37.8267 109.963 37.56 110.177 37.56ZM118.184 42.64C120.264 42.64 122.277 41.8133 124.224 40.16C124.944 39.5467 125.53 38.9867 125.984 38.48C126.437 37.9467 126.784 37.68 127.024 37.68C127.397 37.68 127.584 38.0533 127.584 38.8C127.584 39.5467 127.384 40.3867 126.984 41.32C126.584 42.2267 125.917 43.12 124.984 44C122.69 46.16 119.544 47.24 115.544 47.24C112.37 47.24 110.21 46.0933 109.064 43.8C108.664 43 108.464 41.8533 108.464 40.36C108.464 38.8667 108.757 37.32 109.344 35.72C109.93 34.0933 110.704 32.6933 111.664 31.52C112.65 30.3467 113.784 29.44 115.064 28.8C116.344 28.1333 117.704 27.8 119.144 27.8C120.61 27.8 121.73 28.16 122.504 28.88C123.304 29.6 123.704 30.5333 123.704 31.68C123.704 32.8267 123.41 33.7733 122.824 34.52C122.264 35.24 121.53 35.8533 120.624 36.36C119.717 36.84 118.704 37.28 117.584 37.68C116.49 38.0533 115.41 38.48 114.344 38.96V39.96C114.37 40.92 114.77 41.6 115.544 42C116.317 42.4 117.197 42.6133 118.184 42.64ZM117.504 31.36C116.117 31.36 115.157 32.9733 114.624 36.2C115.184 35.8267 115.704 35.4933 116.184 35.2C116.69 34.9067 117.13 34.6267 117.504 34.36C118.304 33.7733 118.717 33.1067 118.744 32.36C118.744 31.6933 118.33 31.36 117.504 31.36ZM150.142 37.56C150.622 37.56 150.862 38.1733 150.862 39.4C150.862 40.0667 150.582 40.88 150.022 41.84C149.462 42.7733 148.729 43.64 147.822 44.44C146.942 45.2133 145.956 45.8533 144.862 46.36C143.769 46.8667 142.702 47.12 141.662 47.12C140.196 47.12 139.236 45.92 138.782 43.52C137.182 46.0533 134.809 47.32 131.662 47.32C129.742 47.32 128.209 46.7333 127.062 45.56C125.916 44.3867 125.356 42.96 125.382 41.28C125.382 36.7467 126.889 33.1733 129.902 30.56C131.982 28.7733 134.142 27.88 136.382 27.88C137.396 27.88 138.196 27.96 138.782 28.12L139.702 28.36C140.796 23.2133 142.062 19.7733 143.502 18.04C143.982 17.4533 144.462 17.16 144.942 17.16C145.716 17.16 146.436 17.6933 147.102 18.76C147.689 19.64 147.982 20.4 147.982 21.04C147.982 21.68 147.889 22.3067 147.702 22.92C147.516 23.5333 147.276 24.1067 146.982 24.64C146.716 25.1467 146.409 25.6533 146.062 26.16C145.716 26.64 145.369 27.1333 145.022 27.64C144.249 30.52 143.676 33.7467 143.302 37.32C143.196 38.3333 143.142 39.1467 143.142 39.76C143.142 41.6 143.449 42.52 144.062 42.52C144.756 42.52 146.436 41.1333 149.102 38.36C149.582 37.8267 149.929 37.56 150.142 37.56ZM131.262 39.96C131.262 42.0133 132.022 43.04 133.542 43.04C134.449 43.04 135.356 42.6933 136.262 42C137.196 41.3067 137.916 40.1467 138.422 38.52C138.476 36.12 138.756 33.48 139.262 30.6C137.129 31.0267 135.262 32.0667 133.662 33.72C132.062 35.3733 131.262 37.4533 131.262 39.96ZM153.664 47.12C150.997 47.12 149.664 44.6267 149.664 39.64C149.664 36.92 149.997 34.4533 150.664 32.24C151.704 28.8267 152.877 27.12 154.184 27.12C154.957 27.12 155.57 27.64 156.024 28.68C156.397 29.48 156.57 30.2667 156.544 31.04C156.544 32.1067 156.224 33.9867 155.584 36.68C154.97 39.0267 154.664 40.48 154.664 41.04C154.664 41.6 154.797 41.9867 155.064 42.2C155.357 42.4133 155.69 42.52 156.064 42.52C156.464 42.52 156.957 42.2667 157.544 41.76C158.13 41.2533 158.717 40.7067 159.304 40.12C159.89 39.5067 160.424 38.9467 160.904 38.44C161.41 37.9333 161.757 37.68 161.944 37.68C162.317 37.68 162.504 38.1333 162.504 39.04C162.504 40.9067 161.557 42.7333 159.664 44.52C157.797 46.28 155.797 47.1467 153.664 47.12ZM155.304 23.88C154.584 22.8133 154.224 21.6667 154.224 20.44C154.224 19.2133 154.41 18.2 154.784 17.4C155.184 16.5733 155.557 15.9733 155.904 15.6C156.25 15.2 156.65 15 157.104 15C157.85 15 158.53 15.56 159.144 16.68C159.757 17.7733 160.064 18.6933 160.064 19.44C160.064 20.8267 159.57 21.92 158.584 22.72C157.624 23.4933 156.53 23.88 155.304 23.88ZM168.464 45.24C168.464 46.8133 166.931 47.6 163.864 47.6C163.198 47.6 162.798 47.2667 162.664 46.6C162.558 45.9067 162.504 44.9467 162.504 43.72C162.504 41.1333 163.024 37.9333 164.064 34.12C165.798 27.8267 167.651 24.12 169.624 23C169.891 22.84 170.184 22.76 170.504 22.76C170.824 22.76 170.984 23.28 170.984 24.32C170.984 25.36 170.931 26.28 170.824 27.08C170.611 28.68 170.224 30.7467 169.664 33.28C169.131 35.8133 168.864 37.3067 168.864 37.76L168.464 45.24ZM171.184 34.48C171.184 34.1333 171.371 33.9067 171.744 33.8C172.144 33.6933 172.638 33.6 173.224 33.52C173.811 33.4133 174.451 33.2667 175.144 33.08C175.838 32.8933 176.478 32.5467 177.064 32.04C178.424 30.8667 179.104 28.9067 179.104 26.16C179.104 24.4 178.504 23.0533 177.304 22.12C176.131 21.1867 174.424 20.72 172.184 20.72C169.971 20.72 167.891 21.1867 165.944 22.12C165.224 22.4667 164.571 22.7867 163.984 23.08C163.424 23.3733 162.904 23.52 162.424 23.52C161.944 23.52 161.704 23.3733 161.704 23.08C161.704 22.6267 162.144 21.88 163.024 20.84C163.904 19.88 165.291 18.9867 167.184 18.16C169.104 17.3333 171.118 16.92 173.224 16.92C177.198 16.8933 180.291 17.8267 182.504 19.72C184.424 21.3733 185.384 23.52 185.384 26.16C185.384 28.7733 184.438 31.12 182.544 33.2C180.651 35.2533 178.278 36.28 175.424 36.28C172.598 36.28 171.184 35.68 171.184 34.48ZM193.917 47.12C190.103 47.1467 187.503 45.72 186.117 42.84C185.637 41.8267 185.397 40.56 185.397 39.04C185.397 37.4933 185.53 35.8533 185.797 34.12C186.33 30.6533 187.357 27.4533 188.877 24.52C189.65 23.0267 190.517 21.7467 191.477 20.68C193.583 18.3333 195.93 17.1733 198.517 17.2C199.663 17.2 200.557 17.52 201.197 18.16C201.863 18.7733 202.197 19.6667 202.197 20.84C202.197 22.0133 201.85 23.2 201.157 24.4C200.463 25.5733 199.57 26.8 198.477 28.08C197.41 29.3333 196.223 30.6533 194.917 32.04C193.61 33.4267 192.33 34.9333 191.077 36.56V38.16C191.077 39.6533 191.397 40.7467 192.037 41.44C192.677 42.1333 193.423 42.48 194.277 42.48C196.57 42.48 198.597 41.3467 200.357 39.08C201.077 38.1467 201.623 37.68 201.997 37.68C202.37 37.68 202.557 38.1333 202.557 39.04C202.557 39.9467 202.303 40.88 201.797 41.84C201.317 42.7733 200.677 43.64 199.877 44.44C199.077 45.2133 198.157 45.8533 197.117 46.36C196.077 46.8667 195.01 47.12 193.917 47.12ZM196.077 25.64C196.637 24.9467 197.077 24.32 197.397 23.76C197.717 23.2 197.877 22.6267 197.877 22.04C197.877 21.4267 197.663 21.12 197.237 21.12C196.303 21.12 195.263 22.08 194.117 24C192.997 25.92 192.157 28.44 191.597 31.56C192.503 30.1733 193.33 29.0133 194.077 28.08C194.85 27.1467 195.517 26.3333 196.077 25.64ZM224.752 37.56C225.232 37.56 225.472 38.1733 225.472 39.4C225.472 40.0667 225.192 40.88 224.632 41.84C224.072 42.7733 223.338 43.64 222.432 44.44C221.552 45.2133 220.565 45.8533 219.472 46.36C218.378 46.8667 217.312 47.12 216.272 47.12C214.858 47.12 213.912 45.88 213.432 43.4C212.738 44.5467 211.832 45.4933 210.712 46.24C209.592 46.96 208.085 47.32 206.192 47.32C204.325 47.32 202.818 46.7333 201.672 45.56C200.525 44.3867 199.965 42.96 199.992 41.28C199.992 36.7467 201.498 33.1733 204.512 30.56C205.792 29.4667 206.978 28.7467 208.072 28.4C209.192 28.0533 210.365 27.88 211.592 27.88C212.818 27.88 213.818 28.0933 214.592 28.52C214.965 27.7467 215.392 27.36 215.872 27.36C216.805 27.36 217.685 27.7733 218.512 28.6C219.365 29.4 219.792 30.16 219.792 30.88C219.418 31.76 218.872 32.8133 218.152 34.04C217.938 35.2667 217.832 36.9867 217.832 39.2C217.832 41.4133 218.112 42.52 218.672 42.52C219.365 42.52 221.045 41.1333 223.712 38.36C224.192 37.8267 224.538 37.56 224.752 37.56ZM205.872 39.96C205.872 42.0133 206.632 43.04 208.152 43.04C209.778 43.0133 211.125 42.1467 212.192 40.44C212.565 39.8533 212.872 39.1333 213.112 38.28C213.112 35.2933 213.378 32.7333 213.912 30.6C211.752 31.0267 209.872 32.0667 208.272 33.72C206.672 35.3733 205.872 37.4533 205.872 39.96ZM228.793 27.04C229.753 27.04 230.66 27.96 231.513 29.8C232.766 28.4933 234.313 27.84 236.153 27.84C238.02 27.84 239.42 28.2533 240.353 29.08C241.286 29.88 241.753 31.0267 241.753 32.52C241.753 33.9867 241.553 35.48 241.153 37C240.78 38.52 240.5 39.6133 240.313 40.28C240.153 40.92 240.073 41.4533 240.073 41.88C240.073 42.3067 240.22 42.52 240.513 42.52C240.913 42.52 241.406 42.2667 241.993 41.76C242.58 41.2533 243.166 40.7067 243.753 40.12C244.34 39.5067 244.873 38.9467 245.353 38.44C245.86 37.9333 246.206 37.68 246.393 37.68C246.766 37.68 246.953 38.1333 246.953 39.04C246.953 40.9067 246.033 42.7067 244.193 44.44C241.1 46.2533 239.126 47.16 238.273 47.16C238.193 47.16 238.14 47.1467 238.113 47.12C235.98 47.12 234.913 45.4133 234.913 42C234.913 40.5333 235.046 39.1867 235.313 37.96C235.606 36.7333 235.82 35.84 235.953 35.28C236.086 34.72 236.153 34.1467 236.153 33.56C236.153 32.6 235.593 32.12 234.473 32.12C233.38 32.12 232.326 32.9467 231.313 34.6C230.326 36.2267 229.66 37.92 229.313 39.68V39.96C229.313 40.8667 229.446 41.8 229.713 42.76C230.006 43.72 230.153 44.3867 230.153 44.76C230.153 45.6667 229.02 46.56 226.753 47.44C226.406 47.5733 226.1 47.64 225.833 47.64C225.166 47.64 224.7 47.2933 224.433 46.6C224.193 45.9067 224.073 44.8267 224.073 43.36C224.073 39.5733 224.22 36.84 224.513 35.16C224.913 32.6533 225.82 30.32 227.233 28.16C227.713 27.4133 228.233 27.04 228.793 27.04ZM246.717 44.84C246.424 44.12 246.211 43.2933 246.077 42.36C245.944 41.4 245.877 40.0667 245.877 38.36C245.877 36.6533 246.197 34.3467 246.837 31.44H245.037C244.717 31.44 244.557 31.3067 244.557 31.04C244.557 30.4 244.611 29.88 244.717 29.48C244.851 29.0533 245.144 28.5733 245.597 28.04H246.557C246.931 28.04 247.331 28.0267 247.757 28C249.037 23.8933 250.344 21.84 251.677 21.84C252.744 21.8667 253.491 22.5467 253.917 23.88C254.024 24.2533 254.144 24.6533 254.277 25.08L252.637 27.96C254.504 28.0133 255.677 28.04 256.157 28.04C256.664 28.04 256.931 28.0933 256.957 28.2C257.011 28.28 257.037 28.4133 257.037 28.6C257.037 29.08 256.917 29.68 256.677 30.4C256.464 31.12 256.211 31.4667 255.917 31.44L251.917 31.24C251.357 34.4933 251.077 37.1867 251.077 39.32C251.077 41.4533 251.384 42.52 251.997 42.52C252.504 42.52 253.424 42.1067 254.757 41.28C256.091 40.4267 257.051 39.6133 257.637 38.84C258.224 38.0667 258.704 37.68 259.077 37.68C259.451 37.68 259.637 38.1333 259.637 39.04C259.637 39.9467 259.317 40.88 258.677 41.84C258.037 42.7733 257.224 43.64 256.237 44.44C255.277 45.2133 254.197 45.8533 252.997 46.36C251.824 46.8667 250.797 47.12 249.917 47.12C249.037 47.12 248.357 46.92 247.877 46.52C247.424 46.0933 247.037 45.5333 246.717 44.84ZM266.773 27.64C268.559 27.6133 269.893 27.9467 270.773 28.64C271.653 29.3067 272.093 30.28 272.093 31.56C272.093 32.8133 271.706 33.8933 270.933 34.8C270.186 35.68 269.266 36.3067 268.173 36.68C268.946 37.48 269.639 38.2933 270.253 39.12C270.893 39.9467 271.213 40.8133 271.213 41.72C271.213 43.5067 270.506 44.8933 269.093 45.88C267.679 46.84 265.706 47.32 263.173 47.32C260.666 47.32 258.786 46.8267 257.533 45.84C256.279 44.8267 255.653 43.6933 255.653 42.44C255.653 41.16 255.959 40 256.573 38.96C257.213 37.92 257.893 37.4 258.613 37.4C259.039 37.4 259.346 37.56 259.533 37.88C259.719 38.1733 260.066 39.0533 260.573 40.52C260.759 41.0533 261.066 41.56 261.493 42.04C262.479 43.1333 264.039 43.68 266.173 43.68C265.853 42.6667 265.333 41.8 264.613 41.08C263.919 40.3333 263.226 39.6133 262.533 38.92C261.839 38.2267 261.226 37.4933 260.693 36.72C260.159 35.92 259.893 34.9867 259.893 33.92C259.893 32 260.613 30.44 262.053 29.24C263.413 28.1733 264.986 27.64 266.773 27.64ZM266.613 35.04C267.679 33.8933 268.213 32.9733 268.213 32.28C268.213 31.96 268.093 31.68 267.853 31.44C267.639 31.1733 267.319 31.04 266.893 31.04C266.466 31.04 266.053 31.0933 265.653 31.2C265.279 31.3067 264.973 31.3867 264.733 31.44C264.733 32.4533 265.359 33.6533 266.613 35.04Z" fill="white"/>
<path d="M10.137 34.4944C10.727 38.0473 15.6175 47.7939 17.989 52.2231L25.9356 48.2637C29.3183 46.5783 38.709 39.2532 40.5173 32.3609C42.3256 25.4686 41.5913 19.0374 39.4016 13.6197C37.6499 9.28554 33.2296 3.21575 31.2385 0.722632C30.6003 1.44615 29.0021 3.23143 27.7152 4.58444C26.1065 6.2757 20.0982 11.8556 18.9042 13.009C17.7102 14.1625 13.7931 17.4174 11.8122 21.6625C9.83138 25.9076 9.39954 30.0532 10.137 34.4944Z" fill="#00AA95"/>
<path d="M18.8031 32.8868C17.7467 36.3299 17.7773 47.2347 17.9247 52.2566H26.8031C30.5825 52.2566 42.2543 49.8882 46.9465 44.5257C51.6387 39.1631 53.8495 33.0794 54.3057 27.2537C54.6707 22.5932 53.4212 15.1892 52.7508 12.0697C51.857 12.4327 49.6304 13.3179 47.8751 13.955C45.681 14.7514 37.8148 17.0662 36.2317 17.5661C34.6487 18.066 29.6911 19.2325 26.025 22.1487C22.3589 25.0649 20.1236 28.5829 18.8031 32.8868Z" fill="#A5E887"/>
<path fill-rule="evenodd" clip-rule="evenodd" d="M17.9216 52.1532C23.2868 48.3874 35.7203 38.3433 43.5022 27.5766C48.5162 20.6394 51.2164 15.4742 52.5407 12.1547C52.617 12.1239 52.6872 12.0955 52.7507 12.0697C53.4211 15.1892 54.6706 22.5932 54.3056 27.2537C53.8494 33.0794 51.6386 39.1631 46.9464 44.5257C42.2542 49.8882 30.5824 52.2566 26.803 52.2566H17.9246C17.9236 52.2224 17.9226 52.188 17.9216 52.1532Z" fill="#00CC76"/>
</svg>
