<svg width="151" height="148" viewBox="0 0 151 148" fill="none" xmlns="http://www.w3.org/2000/svg">
<path d="M150 146L2 1H64.5L150 86.5V146Z" fill="#FF0A0A" stroke="black"/>
<path d="M67.5678 23.9198L71.831 28.3663C72.9982 29.5838 73.6092 30.8674 73.6637 32.217C73.7285 33.5773 73.1997 34.7954 72.0775 35.8713C70.913 36.9879 69.6735 37.4752 68.3591 37.3335C67.0552 37.1815 65.8095 36.4862 64.6219 35.2476L62.3077 32.8338L58.4011 36.5792L56.4675 34.5624L67.5678 23.9198ZM66.061 33.4107C67.5125 34.9246 68.8735 35.0726 70.1439 33.8545C71.4461 32.606 71.3714 31.2248 69.9199 29.7109L67.834 27.5353L63.9751 31.2351L66.061 33.4107ZM68.7229 47.8217C67.8702 46.9324 67.2779 45.9968 66.9459 45.0147C66.6346 44.0331 66.6031 43.0677 66.8513 42.1186C67.11 41.1593 67.6576 40.2788 68.494 39.4769C69.3092 38.6953 70.191 38.1952 71.1396 37.9766C72.1089 37.7584 73.0825 37.8308 74.0603 38.1937C75.0487 38.5464 75.9692 39.1674 76.8218 40.0567C77.6744 40.946 78.2511 41.8866 78.5518 42.8784C78.8732 43.8706 78.9046 44.8463 78.6458 45.8056C78.3976 46.7547 77.8659 47.62 77.0507 48.4016C76.2143 49.2035 75.3115 49.7135 74.3422 49.9317C73.3835 50.1397 72.4152 50.0623 71.4374 49.6994C70.4803 49.3369 69.5755 48.711 68.7229 47.8217ZM70.295 46.3144C70.9954 47.0449 71.7813 47.409 72.6527 47.4066C73.5347 47.394 74.3409 47.0375 75.0714 46.3372C75.8442 45.5962 76.2396 44.8006 76.2575 43.9504C76.2961 43.1006 75.9602 42.3051 75.2497 41.5641C74.5391 40.823 73.7535 40.4486 72.8927 40.4408C72.0526 40.4335 71.2461 40.8003 70.4733 41.5413C69.7428 42.2417 69.3527 43.0322 69.3031 43.9129C69.264 44.7834 69.5946 45.5839 70.295 46.3144ZM82.3785 46.3292L84.236 48.2666L83.3149 49.1497C84.1025 49.187 84.825 49.3578 85.4825 49.6621C86.14 49.9664 86.7682 50.4308 87.367 51.0555C88.108 51.8283 88.5984 52.6789 88.8382 53.6071C89.0987 54.5358 89.0843 55.4639 88.7951 56.3914C88.5266 57.3194 87.9901 58.169 87.1855 58.9405C86.3915 59.7017 85.5199 60.2021 84.5709 60.4414C83.6321 60.6913 82.6936 60.6768 81.7555 60.3977C80.8382 60.1191 80.009 59.5933 79.2681 58.8205C78.7098 58.2382 78.2614 57.6116 77.9228 56.9405C77.605 56.27 77.4376 55.5974 77.4207 54.9228L73.1965 58.9727L71.2781 56.9718L82.3785 46.3292ZM80.3682 56.8209C81.0584 57.5408 81.8598 57.9103 82.7722 57.9295C83.6846 57.9487 84.5061 57.6082 85.2366 56.9078C85.9671 56.2074 86.3367 55.4061 86.3453 54.5038C86.3539 53.6015 86.0131 52.7904 85.3229 52.0705C84.7748 51.4988 84.134 51.1378 83.4007 50.9875C82.6674 50.8372 81.955 50.9208 81.2637 51.2382L79.7233 52.7151C79.367 53.3818 79.2432 54.0898 79.3519 54.8389C79.4813 55.5885 79.8201 56.2492 80.3682 56.8209ZM87.1191 67.0091C86.1345 65.9822 85.6738 64.9508 85.7371 63.9148C85.811 62.8686 86.3085 61.904 87.2296 61.0209L92.0413 56.4076L93.9597 58.4085L89.3385 62.8392C88.2269 63.9049 88.1685 64.9566 89.1632 65.9941C89.5997 66.4493 90.1166 66.7766 90.7141 66.9759C91.3221 67.165 91.9751 67.1892 92.6731 67.0483L97.6595 62.2675L99.5779 64.2684L91.9554 71.5766L90.0979 69.6392L91.1301 68.6496C90.3509 68.7058 89.6169 68.5866 88.9281 68.292C88.2499 67.9873 87.6469 67.5597 87.1191 67.0091ZM105.523 62.2362L107.442 64.2371L95.7062 75.4887L93.7878 73.4878L105.523 62.2362ZM99.9762 80.4192C99.1032 79.5087 98.6258 78.534 98.544 77.4949C98.4727 76.4457 98.8447 75.5303 99.6599 74.7488C100.507 73.9367 101.432 73.5776 102.437 73.6714C103.441 73.7651 104.42 74.3096 105.374 75.3047C106.298 76.2681 106.899 77.287 107.177 78.3613L107.383 78.1634C107.923 77.6457 108.153 77.1007 108.071 76.5285C108 75.9669 107.609 75.3155 106.899 74.5744C106.452 74.1086 105.963 73.6937 105.431 73.3298C104.91 72.9558 104.403 72.6702 103.909 72.4731L105.481 70.9658C105.934 71.1413 106.462 71.4481 107.064 71.886C107.677 72.3346 108.222 72.8077 108.699 73.3053C109.968 74.6286 110.621 75.882 110.659 77.0653C110.706 78.2385 110.228 79.3072 109.222 80.2715L104.569 84.7326L102.757 82.8428L103.503 82.1272C102.871 82.1035 102.267 81.9612 101.692 81.7001C101.127 81.4496 100.555 81.0226 99.9762 80.4192ZM101.909 79.5107C102.335 79.9554 102.806 80.2765 103.32 80.474C103.845 80.6614 104.353 80.7032 104.843 80.5994L105.684 79.7925C105.539 78.8143 105.106 77.9494 104.385 77.1978C103.36 76.1285 102.434 75.9897 101.609 76.7814C101.206 77.1672 101.032 77.5888 101.084 78.0463C101.147 78.5144 101.422 79.0026 101.909 79.5107ZM113.945 79.2529L115.802 81.1903L114.579 82.3627C115.287 82.2739 116.01 82.4136 116.749 82.7818C117.498 83.1606 118.223 83.7153 118.923 84.4458L117.399 85.9074C116.658 85.1346 115.892 84.5791 115.1 84.2408C114.329 83.903 113.583 83.8666 112.862 84.1315L108.24 88.5621L106.322 86.5612L113.945 79.2529Z" fill="white"/>
</svg>
